<svg width="1440" height="128" viewBox="0 0 1440 128" fill="none" xmlns="http://www.w3.org/2000/svg">
<path d="M1255.43 42H1155.57C1153.6 42 1152 43.8804 1152 46.2V79.8C1152 82.1196 1153.6 84 1155.57 84H1255.43C1257.4 84 1259 82.1196 1259 79.8V46.2C1259 43.8804 1257.4 42 1255.43 42Z" fill="#4D4DFF"/>
<path d="M1187.28 67.272H1191.07V69H1185.02V57.704H1187.28V67.272ZM1196.51 60.024C1197.37 60.024 1198.15 60.2053 1198.83 60.568C1199.52 60.9307 1200.07 61.4587 1200.46 62.152C1200.86 62.8347 1201.05 63.64 1201.05 64.568C1201.05 65.496 1200.86 66.3013 1200.46 66.984C1200.07 67.6667 1199.52 68.1947 1198.83 68.568C1198.15 68.9307 1197.37 69.112 1196.51 69.112C1195.65 69.112 1194.87 68.9307 1194.17 68.568C1193.49 68.1947 1192.95 67.6667 1192.56 66.984C1192.16 66.3013 1191.97 65.496 1191.97 64.568C1191.97 63.64 1192.16 62.8347 1192.56 62.152C1192.95 61.4587 1193.49 60.9307 1194.17 60.568C1194.87 60.2053 1195.65 60.024 1196.51 60.024ZM1196.51 61.976C1195.88 61.976 1195.35 62.2 1194.91 62.648C1194.47 63.0853 1194.25 63.7253 1194.25 64.568C1194.25 65.4107 1194.47 66.056 1194.91 66.504C1195.35 66.9413 1195.88 67.16 1196.51 67.16C1197.14 67.16 1197.67 66.9413 1198.11 66.504C1198.55 66.056 1198.77 65.4107 1198.77 64.568C1198.77 63.7253 1198.55 63.0853 1198.11 62.648C1197.67 62.2 1197.14 61.976 1196.51 61.976ZM1206.12 60.024C1206.87 60.024 1207.51 60.2 1208.04 60.552C1208.57 60.904 1208.95 61.3787 1209.18 61.976V60.136H1211.42V69.032C1211.42 69.8533 1211.25 70.5893 1210.92 71.24C1210.6 71.9013 1210.12 72.4187 1209.47 72.792C1208.83 73.1653 1208.05 73.352 1207.13 73.352C1205.85 73.352 1204.81 73.048 1204.03 72.44C1203.24 71.832 1202.76 71.0053 1202.59 69.96H1204.81C1204.94 70.408 1205.18 70.7547 1205.55 71C1205.92 71.256 1206.39 71.384 1206.97 71.384C1207.63 71.384 1208.16 71.1867 1208.57 70.792C1208.97 70.408 1209.18 69.8213 1209.18 69.032V67.144C1208.95 67.7413 1208.57 68.2213 1208.04 68.584C1207.51 68.936 1206.87 69.112 1206.12 69.112C1205.37 69.112 1204.7 68.9307 1204.11 68.568C1203.51 68.2053 1203.04 67.6827 1202.7 67C1202.37 66.3067 1202.2 65.496 1202.2 64.568C1202.2 63.64 1202.37 62.8347 1202.7 62.152C1203.04 61.4587 1203.51 60.9307 1204.11 60.568C1204.7 60.2053 1205.37 60.024 1206.12 60.024ZM1206.83 61.992C1206.12 61.992 1205.56 62.2213 1205.13 62.68C1204.7 63.1387 1204.49 63.768 1204.49 64.568C1204.49 65.368 1204.7 65.9973 1205.13 66.456C1205.56 66.904 1206.12 67.128 1206.83 67.128C1207.51 67.128 1208.07 66.8987 1208.51 66.44C1208.95 65.9707 1209.18 65.3467 1209.18 64.568C1209.18 63.7787 1208.95 63.1547 1208.51 62.696C1208.07 62.2267 1207.51 61.992 1206.83 61.992ZM1213.21 57.592C1213.21 57.2293 1213.33 56.936 1213.59 56.712C1213.85 56.4773 1214.18 56.36 1214.6 56.36C1215.01 56.36 1215.35 56.4773 1215.61 56.712C1215.86 56.936 1215.99 57.2293 1215.99 57.592C1215.99 57.944 1215.86 58.2373 1215.61 58.472C1215.35 58.696 1215.01 58.808 1214.6 58.808C1214.18 58.808 1213.85 58.696 1213.59 58.472C1213.33 58.2373 1213.21 57.944 1213.21 57.592ZM1215.72 60.136V69H1213.46V60.136H1215.72ZM1223.04 60.008C1224.06 60.008 1224.88 60.344 1225.49 61.016C1226.09 61.688 1226.4 62.632 1226.4 63.848V69H1224.16V64.104C1224.16 63.4 1223.98 62.856 1223.61 62.472C1223.25 62.0773 1222.76 61.88 1222.13 61.88C1221.49 61.88 1220.97 62.088 1220.59 62.504C1220.21 62.92 1220.01 63.5173 1220.01 64.296V69H1217.76V60.136H1220.01V61.912C1220.25 61.3147 1220.63 60.8507 1221.17 60.52C1221.71 60.1787 1222.33 60.008 1223.04 60.008Z" fill="white"/>
<path d="M1063.59 66.616C1063.59 67.24 1063.44 67.822 1063.14 68.362C1062.84 68.89 1062.39 69.316 1061.78 69.64C1061.16 69.964 1060.41 70.126 1059.53 70.126C1058.66 70.126 1057.89 69.976 1057.2 69.676C1056.52 69.364 1055.97 68.932 1055.57 68.38C1055.16 67.828 1054.92 67.192 1054.86 66.472H1057.06C1057.12 67.024 1057.35 67.498 1057.76 67.894C1058.18 68.29 1058.74 68.488 1059.44 68.488C1060.06 68.488 1060.54 68.32 1060.88 67.984C1061.22 67.648 1061.4 67.216 1061.4 66.688C1061.4 66.232 1061.27 65.86 1061.02 65.572C1060.77 65.272 1060.46 65.038 1060.08 64.87C1059.71 64.702 1059.2 64.51 1058.55 64.294C1057.76 64.042 1057.11 63.79 1056.61 63.538C1056.12 63.286 1055.7 62.92 1055.35 62.44C1055 61.96 1054.83 61.33 1054.83 60.55C1054.83 59.866 1055 59.266 1055.33 58.75C1055.67 58.234 1056.15 57.838 1056.77 57.562C1057.4 57.274 1058.12 57.13 1058.93 57.13C1060.23 57.13 1061.25 57.442 1062.01 58.066C1062.78 58.69 1063.22 59.506 1063.32 60.514H1061.11C1061.03 60.034 1060.8 59.626 1060.43 59.29C1060.07 58.942 1059.57 58.768 1058.93 58.768C1058.36 58.768 1057.89 58.918 1057.55 59.218C1057.2 59.506 1057.02 59.926 1057.02 60.478C1057.02 60.91 1057.14 61.27 1057.38 61.558C1057.62 61.834 1057.92 62.056 1058.28 62.224C1058.66 62.38 1059.16 62.566 1059.8 62.782C1060.6 63.034 1061.25 63.292 1061.76 63.556C1062.27 63.808 1062.71 64.18 1063.05 64.672C1063.41 65.164 1063.59 65.812 1063.59 66.616ZM1065.36 57.202C1065.36 56.854 1065.48 56.566 1065.72 56.338C1065.96 56.11 1066.28 55.996 1066.67 55.996C1067.07 55.996 1067.39 56.11 1067.63 56.338C1067.88 56.566 1068.01 56.854 1068.01 57.202C1068.01 57.55 1067.88 57.832 1067.63 58.048C1067.39 58.264 1067.07 58.372 1066.67 58.372C1066.28 58.372 1065.96 58.264 1065.72 58.048C1065.48 57.832 1065.36 57.55 1065.36 57.202ZM1067.7 60.082V70H1065.65V60.082H1067.7ZM1074.16 59.956C1075.06 59.956 1075.83 60.178 1076.47 60.622C1077.1 61.066 1077.55 61.654 1077.82 62.386V60.082H1079.87V70.108C1079.87 71.032 1079.68 71.848 1079.29 72.556C1078.92 73.276 1078.38 73.84 1077.67 74.248C1076.96 74.656 1076.12 74.86 1075.15 74.86C1073.76 74.86 1072.63 74.53 1071.77 73.87C1070.92 73.21 1070.38 72.316 1070.17 71.188H1072.2C1072.37 71.776 1072.69 72.232 1073.17 72.556C1073.65 72.892 1074.26 73.06 1075.01 73.06C1075.82 73.06 1076.5 72.808 1077.02 72.304C1077.55 71.8 1077.82 71.068 1077.82 70.108V67.696C1077.55 68.428 1077.1 69.016 1076.47 69.46C1075.83 69.904 1075.06 70.126 1074.16 70.126C1073.3 70.126 1072.52 69.922 1071.84 69.514C1071.17 69.106 1070.64 68.518 1070.26 67.75C1069.87 66.982 1069.68 66.076 1069.68 65.032C1069.68 64 1069.87 63.1 1070.26 62.332C1070.64 61.564 1071.17 60.976 1071.84 60.568C1072.52 60.16 1073.3 59.956 1074.16 59.956ZM1074.79 61.756C1073.88 61.756 1073.15 62.05 1072.6 62.638C1072.06 63.214 1071.79 64.012 1071.79 65.032C1071.79 66.052 1072.06 66.856 1072.6 67.444C1073.15 68.02 1073.88 68.308 1074.79 68.308C1075.37 68.308 1075.88 68.176 1076.34 67.912C1076.8 67.636 1077.16 67.252 1077.42 66.76C1077.68 66.268 1077.82 65.692 1077.82 65.032C1077.82 64.384 1077.68 63.814 1077.42 63.322C1077.16 62.818 1076.8 62.434 1076.34 62.17C1075.88 61.894 1075.37 61.756 1074.79 61.756ZM1087.87 59.92C1089.03 59.92 1089.95 60.292 1090.65 61.036C1091.34 61.78 1091.69 62.842 1091.69 64.222V70H1089.64V64.438C1089.64 63.55 1089.41 62.866 1088.95 62.386C1088.5 61.894 1087.87 61.648 1087.08 61.648C1086.27 61.648 1085.61 61.912 1085.12 62.44C1084.63 62.956 1084.38 63.718 1084.38 64.726V70H1082.33V60.082H1084.38V62.26C1084.65 61.516 1085.09 60.94 1085.71 60.532C1086.34 60.124 1087.06 59.92 1087.87 59.92ZM1107.45 60.082V70H1105.38V67.84C1105.13 68.572 1104.69 69.142 1104.07 69.55C1103.44 69.946 1102.72 70.144 1101.89 70.144C1100.74 70.144 1099.81 69.772 1099.12 69.028C1098.42 68.284 1098.07 67.222 1098.07 65.842V60.082H1100.13V65.626C1100.13 66.526 1100.35 67.222 1100.81 67.714C1101.27 68.194 1101.89 68.434 1102.68 68.434C1103.5 68.434 1104.15 68.17 1104.64 67.642C1105.14 67.114 1105.38 66.346 1105.38 65.338V60.082H1107.45ZM1115.6 59.956C1116.46 59.956 1117.23 60.16 1117.9 60.568C1118.59 60.976 1119.12 61.564 1119.5 62.332C1119.89 63.1 1120.08 64 1120.08 65.032C1120.08 66.076 1119.89 66.982 1119.5 67.75C1119.12 68.518 1118.59 69.106 1117.9 69.514C1117.23 69.922 1116.46 70.126 1115.6 70.126C1114.7 70.126 1113.93 69.904 1113.29 69.46C1112.66 69.016 1112.21 68.428 1111.96 67.696V74.716H1109.91V60.082H1111.96V62.386C1112.21 61.654 1112.66 61.066 1113.29 60.622C1113.93 60.178 1114.7 59.956 1115.6 59.956ZM1114.97 61.756C1114.39 61.756 1113.88 61.894 1113.42 62.17C1112.96 62.434 1112.6 62.818 1112.34 63.322C1112.08 63.814 1111.94 64.384 1111.94 65.032C1111.94 65.692 1112.08 66.268 1112.34 66.76C1112.6 67.252 1112.96 67.636 1113.42 67.912C1113.88 68.176 1114.39 68.308 1114.97 68.308C1115.88 68.308 1116.61 68.02 1117.16 67.444C1117.72 66.856 1117.99 66.052 1117.99 65.032C1117.99 64.024 1117.72 63.226 1117.16 62.638C1116.61 62.05 1115.88 61.756 1114.97 61.756Z" fill="#4D4DFF"/>
<path d="M705.748 67.066H700.168L699.106 70H697.342L702.04 57.544H703.894L708.574 70H706.81L705.748 67.066ZM705.28 65.788L702.958 59.38L700.636 65.788H705.28ZM715.686 59.992C716.562 59.992 717.342 60.196 718.026 60.604C718.71 61.012 719.244 61.6 719.628 62.368C720.024 63.136 720.222 64.036 720.222 65.068C720.222 66.1 720.024 67 719.628 67.768C719.244 68.524 718.71 69.106 718.026 69.514C717.342 69.922 716.562 70.126 715.686 70.126C714.726 70.126 713.91 69.886 713.238 69.406C712.578 68.914 712.122 68.272 711.87 67.48V70H710.232V56.68H711.87V62.638C712.122 61.846 712.578 61.21 713.238 60.73C713.91 60.238 714.726 59.992 715.686 59.992ZM715.218 61.45C714.582 61.45 714.006 61.6 713.49 61.9C712.974 62.188 712.572 62.608 712.284 63.16C711.996 63.712 711.852 64.348 711.852 65.068C711.852 65.788 711.996 66.424 712.284 66.976C712.572 67.516 712.974 67.936 713.49 68.236C714.006 68.536 714.582 68.686 715.218 68.686C716.238 68.686 717.048 68.368 717.648 67.732C718.26 67.084 718.566 66.196 718.566 65.068C718.566 63.94 718.26 63.058 717.648 62.422C717.048 61.774 716.238 61.45 715.218 61.45ZM726.843 59.992C727.791 59.992 728.637 60.196 729.381 60.604C730.137 61.012 730.725 61.6 731.145 62.368C731.577 63.136 731.793 64.036 731.793 65.068C731.793 66.1 731.577 67 731.145 67.768C730.725 68.524 730.137 69.106 729.381 69.514C728.637 69.922 727.791 70.126 726.843 70.126C725.895 70.126 725.043 69.922 724.287 69.514C723.543 69.106 722.955 68.524 722.523 67.768C722.091 67 721.875 66.1 721.875 65.068C721.875 64.036 722.091 63.136 722.523 62.368C722.955 61.6 723.543 61.012 724.287 60.604C725.043 60.196 725.895 59.992 726.843 59.992ZM726.843 61.432C726.255 61.432 725.709 61.564 725.205 61.828C724.713 62.092 724.311 62.5 723.999 63.052C723.699 63.592 723.549 64.264 723.549 65.068C723.549 65.86 723.699 66.532 723.999 67.084C724.311 67.624 724.713 68.026 725.205 68.29C725.709 68.554 726.255 68.686 726.843 68.686C727.431 68.686 727.971 68.554 728.463 68.29C728.967 68.026 729.369 67.624 729.669 67.084C729.981 66.532 730.137 65.86 730.137 65.068C730.137 64.264 729.981 63.592 729.669 63.052C729.369 62.5 728.967 62.092 728.463 61.828C727.971 61.564 727.431 61.432 726.843 61.432ZM742.711 60.118V70H741.073V67.678C740.821 68.482 740.371 69.1 739.723 69.532C739.087 69.952 738.343 70.162 737.491 70.162C736.351 70.162 735.427 69.796 734.719 69.064C734.011 68.32 733.657 67.258 733.657 65.878V60.118H735.295V65.716C735.295 66.7 735.547 67.462 736.051 68.002C736.555 68.53 737.239 68.794 738.103 68.794C739.003 68.794 739.723 68.506 740.263 67.93C740.803 67.342 741.073 66.49 741.073 65.374V60.118H742.711ZM750.051 68.56V70H748.827C747.819 70 747.063 69.76 746.559 69.28C746.067 68.8 745.821 67.996 745.821 66.868V61.54H744.345V60.118H745.821V57.652H747.477V60.118H750.033V61.54H747.477V66.904C747.477 67.54 747.591 67.978 747.819 68.218C748.059 68.446 748.467 68.56 749.043 68.56H750.051ZM758.046 57.31V64.924C758.046 66.172 758.322 67.096 758.874 67.696C759.426 68.284 760.188 68.578 761.16 68.578C762.12 68.578 762.87 68.278 763.41 67.678C763.95 67.078 764.22 66.16 764.22 64.924V57.31H765.858V64.924C765.858 66.652 765.426 67.954 764.562 68.83C763.71 69.694 762.564 70.126 761.124 70.126C759.696 70.126 758.55 69.694 757.686 68.83C756.834 67.954 756.408 66.652 756.408 64.924V57.31H758.046ZM771.494 59.992C772.61 59.992 773.504 60.286 774.176 60.874C774.86 61.45 775.274 62.23 775.418 63.214H773.852C773.78 62.626 773.534 62.146 773.114 61.774C772.706 61.39 772.154 61.198 771.458 61.198C770.87 61.198 770.408 61.342 770.072 61.63C769.748 61.906 769.586 62.284 769.586 62.764C769.586 63.124 769.694 63.418 769.91 63.646C770.138 63.862 770.414 64.03 770.738 64.15C771.074 64.258 771.53 64.378 772.106 64.51C772.838 64.678 773.426 64.852 773.87 65.032C774.326 65.2 774.71 65.476 775.022 65.86C775.346 66.244 775.508 66.76 775.508 67.408C775.508 68.212 775.202 68.866 774.59 69.37C773.99 69.874 773.186 70.126 772.178 70.126C771.002 70.126 770.042 69.844 769.298 69.28C768.554 68.716 768.116 67.93 767.984 66.922H769.568C769.628 67.522 769.886 68.008 770.342 68.38C770.81 68.752 771.422 68.938 772.178 68.938C772.742 68.938 773.18 68.794 773.492 68.506C773.816 68.218 773.978 67.84 773.978 67.372C773.978 66.988 773.864 66.682 773.636 66.454C773.408 66.226 773.126 66.052 772.79 65.932C772.454 65.812 771.992 65.686 771.404 65.554C770.672 65.386 770.084 65.218 769.64 65.05C769.208 64.882 768.836 64.618 768.524 64.258C768.224 63.886 768.074 63.388 768.074 62.764C768.074 61.936 768.38 61.27 768.992 60.766C769.604 60.25 770.438 59.992 771.494 59.992Z" fill="black"/>
<path d="M824.117 64.6803L823.498 65.6082C823.375 65.7934 823.211 65.9514 822.996 66.0083C822.291 66.1946 820.42 66.2787 817.571 63.4294C814.721 60.5801 814.805 58.7086 814.992 58.0037C815.049 57.7885 815.207 57.6252 815.392 57.5017L816.32 56.8831C817.011 56.4226 817.197 55.4892 816.737 54.7983L814.984 52.1696C814.582 51.5666 813.807 51.3362 813.141 51.6217L812.351 51.9605C811.75 52.2179 811.26 52.6798 810.968 53.2642C810.724 53.7525 810.535 54.2666 810.509 54.8119C810.428 56.5303 810.805 60.7638 815.521 65.4795C820.236 70.1951 824.47 70.5719 826.188 70.4911C826.733 70.4654 827.248 70.2762 827.736 70.0321C828.32 69.7399 828.782 69.25 829.039 68.6495L829.378 67.8589C829.664 67.1928 829.433 66.4178 828.83 66.0158L826.202 64.2633C825.511 63.8028 824.577 63.9895 824.117 64.6803Z" fill="black"/>
<path d="M850.304 66.072C850.304 66.6053 850.176 67.1013 849.92 67.56C849.664 68.0187 849.275 68.392 848.752 68.68C848.229 68.968 847.584 69.112 846.816 69.112C846.069 69.112 845.403 68.9787 844.816 68.712C844.24 68.4347 843.776 68.0613 843.424 67.592C843.083 67.112 842.885 66.568 842.832 65.96H844.384C844.416 66.28 844.523 66.5947 844.704 66.904C844.896 67.2027 845.163 67.4533 845.504 67.656C845.856 67.848 846.277 67.944 846.768 67.944C847.408 67.944 847.899 67.7733 848.24 67.432C848.581 67.0907 848.752 66.6533 848.752 66.12C848.752 65.6613 848.629 65.288 848.384 65C848.149 64.712 847.856 64.488 847.504 64.328C847.152 64.1573 846.672 63.976 846.064 63.784C845.349 63.5493 844.773 63.3307 844.336 63.128C843.909 62.9147 843.541 62.6 843.232 62.184C842.933 61.768 842.784 61.2187 842.784 60.536C842.784 59.9493 842.923 59.432 843.2 58.984C843.488 58.536 843.893 58.1893 844.416 57.944C844.949 57.6987 845.573 57.576 846.288 57.576C847.397 57.576 848.277 57.848 848.928 58.392C849.579 58.9253 849.957 59.608 850.064 60.44H848.496C848.411 59.992 848.181 59.5973 847.808 59.256C847.435 58.9147 846.928 58.744 846.288 58.744C845.701 58.744 845.232 58.8987 844.88 59.208C844.528 59.5067 844.352 59.9333 844.352 60.488C844.352 60.9253 844.464 61.2827 844.688 61.56C844.923 61.8267 845.211 62.04 845.552 62.2C845.893 62.3493 846.363 62.52 846.96 62.712C847.685 62.9467 848.267 63.1707 848.704 63.384C849.152 63.5973 849.531 63.9227 849.84 64.36C850.149 64.7867 850.304 65.3573 850.304 66.072ZM857.11 60.104C857.888 60.104 858.582 60.2853 859.19 60.648C859.798 61.0107 860.272 61.5333 860.614 62.216C860.966 62.8987 861.142 63.6987 861.142 64.616C861.142 65.5333 860.966 66.3333 860.614 67.016C860.272 67.688 859.798 68.2053 859.19 68.568C858.582 68.9307 857.888 69.112 857.11 69.112C856.256 69.112 855.531 68.8987 854.934 68.472C854.347 68.0347 853.942 67.464 853.718 66.76V73.16H852.262V60.216H853.718V62.456C853.942 61.752 854.347 61.1867 854.934 60.76C855.531 60.3227 856.256 60.104 857.11 60.104ZM856.694 61.4C856.128 61.4 855.616 61.5333 855.158 61.8C854.699 62.056 854.342 62.4293 854.086 62.92C853.83 63.4107 853.702 63.976 853.702 64.616C853.702 65.256 853.83 65.8213 854.086 66.312C854.342 66.792 854.699 67.1653 855.158 67.432C855.616 67.6987 856.128 67.832 856.694 67.832C857.6 67.832 858.32 67.5493 858.854 66.984C859.398 66.408 859.67 65.6187 859.67 64.616C859.67 63.6133 859.398 62.8293 858.854 62.264C858.32 61.688 857.6 61.4 856.694 61.4ZM871.123 64.12C871.123 64.4293 871.102 64.696 871.059 64.92H864.035C864.067 65.9227 864.35 66.6747 864.883 67.176C865.427 67.6773 866.088 67.928 866.867 67.928C867.571 67.928 868.158 67.752 868.627 67.4C869.107 67.0373 869.4 66.5573 869.507 65.96H871.059C870.952 66.568 870.712 67.112 870.339 67.592C869.976 68.072 869.502 68.4453 868.915 68.712C868.328 68.9787 867.667 69.112 866.931 69.112C866.088 69.112 865.342 68.9307 864.691 68.568C864.04 68.2053 863.528 67.688 863.155 67.016C862.792 66.3333 862.611 65.5333 862.611 64.616C862.611 63.6987 862.792 62.8987 863.155 62.216C863.528 61.5333 864.04 61.0107 864.691 60.648C865.342 60.2853 866.088 60.104 866.931 60.104C867.784 60.104 868.526 60.2853 869.155 60.648C869.795 61.0107 870.28 61.496 870.611 62.104C870.952 62.712 871.123 63.384 871.123 64.12ZM869.651 64.216C869.683 63.5653 869.576 63.0213 869.331 62.584C869.086 62.1467 868.75 61.8213 868.323 61.608C867.896 61.3947 867.432 61.288 866.931 61.288C866.131 61.288 865.459 61.5387 864.915 62.04C864.371 62.5307 864.078 63.256 864.035 64.216H869.651ZM876.627 60.104C877.481 60.104 878.201 60.3173 878.787 60.744C879.385 61.1707 879.801 61.7413 880.035 62.456V60.216H881.491V69H880.035V66.76C879.801 67.4747 879.385 68.0453 878.787 68.472C878.201 68.8987 877.481 69.112 876.627 69.112C875.849 69.112 875.155 68.9307 874.547 68.568C873.939 68.2053 873.459 67.688 873.107 67.016C872.766 66.3333 872.595 65.5333 872.595 64.616C872.595 63.6987 872.766 62.8987 873.107 62.216C873.459 61.5333 873.939 61.0107 874.547 60.648C875.155 60.2853 875.849 60.104 876.627 60.104ZM877.043 61.4C876.147 61.4 875.427 61.688 874.883 62.264C874.35 62.8293 874.083 63.6133 874.083 64.616C874.083 65.6187 874.35 66.408 874.883 66.984C875.427 67.5493 876.147 67.832 877.043 67.832C877.619 67.832 878.131 67.6987 878.579 67.432C879.038 67.1653 879.395 66.792 879.651 66.312C879.907 65.8213 880.035 65.256 880.035 64.616C880.035 63.976 879.907 63.4107 879.651 62.92C879.395 62.4293 879.038 62.056 878.579 61.8C878.131 61.5333 877.619 61.4 877.043 61.4ZM888.625 69L885.265 65.048V69H883.809V57.16H885.265V64.04L888.577 60.216H890.353L886.417 64.584L890.449 69H888.625ZM899.876 67.72V69H898.788C897.892 69 897.22 68.7867 896.772 68.36C896.334 67.9333 896.116 67.2187 896.116 66.216V61.48H894.804V60.216H896.116V58.024H897.588V60.216H899.86V61.48H897.588V66.248C897.588 66.8133 897.689 67.2027 897.892 67.416C898.105 67.6187 898.468 67.72 898.98 67.72H899.876ZM905.636 60.104C906.479 60.104 907.231 60.2853 907.892 60.648C908.564 61.0107 909.087 61.5333 909.46 62.216C909.844 62.8987 910.036 63.6987 910.036 64.616C910.036 65.5333 909.844 66.3333 909.46 67.016C909.087 67.688 908.564 68.2053 907.892 68.568C907.231 68.9307 906.479 69.112 905.636 69.112C904.794 69.112 904.036 68.9307 903.364 68.568C902.703 68.2053 902.18 67.688 901.796 67.016C901.412 66.3333 901.22 65.5333 901.22 64.616C901.22 63.6987 901.412 62.8987 901.796 62.216C902.18 61.5333 902.703 61.0107 903.364 60.648C904.036 60.2853 904.794 60.104 905.636 60.104ZM905.636 61.384C905.114 61.384 904.628 61.5013 904.18 61.736C903.743 61.9707 903.386 62.3333 903.108 62.824C902.842 63.304 902.708 63.9013 902.708 64.616C902.708 65.32 902.842 65.9173 903.108 66.408C903.386 66.888 903.743 67.2453 904.18 67.48C904.628 67.7147 905.114 67.832 905.636 67.832C906.159 67.832 906.639 67.7147 907.076 67.48C907.524 67.2453 907.882 66.888 908.148 66.408C908.426 65.9173 908.564 65.32 908.564 64.616C908.564 63.9013 908.426 63.304 908.148 62.824C907.882 62.3333 907.524 61.9707 907.076 61.736C906.639 61.5013 906.159 61.384 905.636 61.384ZM919.487 60.104C920.34 60.104 921.06 60.3173 921.647 60.744C922.244 61.1707 922.66 61.7413 922.895 62.456V60.216H924.351V69H922.895V66.76C922.66 67.4747 922.244 68.0453 921.647 68.472C921.06 68.8987 920.34 69.112 919.487 69.112C918.708 69.112 918.015 68.9307 917.407 68.568C916.799 68.2053 916.319 67.688 915.967 67.016C915.625 66.3333 915.455 65.5333 915.455 64.616C915.455 63.6987 915.625 62.8987 915.967 62.216C916.319 61.5333 916.799 61.0107 917.407 60.648C918.015 60.2853 918.708 60.104 919.487 60.104ZM919.903 61.4C919.007 61.4 918.287 61.688 917.743 62.264C917.209 62.8293 916.943 63.6133 916.943 64.616C916.943 65.6187 917.209 66.408 917.743 66.984C918.287 67.5493 919.007 67.832 919.903 67.832C920.479 67.832 920.991 67.6987 921.439 67.432C921.897 67.1653 922.255 66.792 922.511 66.312C922.767 65.8213 922.895 65.256 922.895 64.616C922.895 63.976 922.767 63.4107 922.511 62.92C922.255 62.4293 921.897 62.056 921.439 61.8C920.991 61.5333 920.479 61.4 919.903 61.4ZM935.469 60.104C936.248 60.104 936.941 60.2853 937.549 60.648C938.157 61.0107 938.632 61.5333 938.973 62.216C939.325 62.8987 939.501 63.6987 939.501 64.616C939.501 65.5333 939.325 66.3333 938.973 67.016C938.632 67.688 938.157 68.2053 937.549 68.568C936.941 68.9307 936.248 69.112 935.469 69.112C934.616 69.112 933.89 68.8987 933.293 68.472C932.706 68.0347 932.301 67.464 932.077 66.76V73.16H930.621V60.216H932.077V62.456C932.301 61.752 932.706 61.1867 933.293 60.76C933.89 60.3227 934.616 60.104 935.469 60.104ZM935.053 61.4C934.488 61.4 933.976 61.5333 933.517 61.8C933.058 62.056 932.701 62.4293 932.445 62.92C932.189 63.4107 932.061 63.976 932.061 64.616C932.061 65.256 932.189 65.8213 932.445 66.312C932.701 66.792 933.058 67.1653 933.517 67.432C933.976 67.6987 934.488 67.832 935.053 67.832C935.96 67.832 936.68 67.5493 937.213 66.984C937.757 66.408 938.029 65.6187 938.029 64.616C938.029 63.6133 937.757 62.8293 937.213 62.264C936.68 61.688 935.96 61.4 935.053 61.4ZM946.026 60.072C947.05 60.072 947.877 60.4027 948.506 61.064C949.136 61.7147 949.45 62.6587 949.45 63.896V69H947.994V64.024C947.994 63.1493 947.77 62.4773 947.322 62.008C946.874 61.5387 946.266 61.304 945.498 61.304C944.698 61.304 944.058 61.5653 943.578 62.088C943.098 62.6 942.858 63.352 942.858 64.344V69H941.402V57.16H942.858V62.296C943.082 61.5813 943.477 61.032 944.042 60.648C944.618 60.264 945.28 60.072 946.026 60.072ZM955.284 60.104C956.137 60.104 956.857 60.3173 957.444 60.744C958.041 61.1707 958.457 61.7413 958.692 62.456V60.216H960.148V69H958.692V66.76C958.457 67.4747 958.041 68.0453 957.444 68.472C956.857 68.8987 956.137 69.112 955.284 69.112C954.505 69.112 953.812 68.9307 953.204 68.568C952.596 68.2053 952.116 67.688 951.764 67.016C951.422 66.3333 951.252 65.5333 951.252 64.616C951.252 63.6987 951.422 62.8987 951.764 62.216C952.116 61.5333 952.596 61.0107 953.204 60.648C953.812 60.2853 954.505 60.104 955.284 60.104ZM955.7 61.4C954.804 61.4 954.084 61.688 953.54 62.264C953.006 62.8293 952.74 63.6133 952.74 64.616C952.74 65.6187 953.006 66.408 953.54 66.984C954.084 67.5493 954.804 67.832 955.7 67.832C956.276 67.832 956.788 67.6987 957.236 67.432C957.694 67.1653 958.052 66.792 958.308 66.312C958.564 65.8213 958.692 65.256 958.692 64.616C958.692 63.976 958.564 63.4107 958.308 62.92C958.052 62.4293 957.694 62.056 957.236 61.8C956.788 61.5333 956.276 61.4 955.7 61.4ZM963.921 61.992C964.209 61.384 964.63 60.9147 965.185 60.584C965.74 60.2427 966.401 60.072 967.169 60.072V61.656H966.721C965.9 61.656 965.228 61.8693 964.705 62.296C964.182 62.712 963.921 63.4053 963.921 64.376V69H962.465V60.216H963.921V61.992ZM979.406 60.072C980.43 60.072 981.251 60.4027 981.87 61.064C982.499 61.7147 982.814 62.6587 982.814 63.896V69H981.358V64.024C981.358 63.16 981.144 62.4987 980.718 62.04C980.302 61.5813 979.726 61.352 978.99 61.352C978.222 61.352 977.603 61.608 977.134 62.12C976.675 62.6213 976.446 63.3627 976.446 64.344V69H974.99V64.024C974.99 63.16 974.776 62.4987 974.35 62.04C973.923 61.5813 973.347 61.352 972.622 61.352C971.843 61.352 971.219 61.608 970.75 62.12C970.291 62.6213 970.062 63.3627 970.062 64.344V69H968.606V60.216H970.062V62.216C970.275 61.5227 970.654 60.9947 971.198 60.632C971.752 60.2587 972.387 60.072 973.102 60.072C973.848 60.072 974.494 60.264 975.038 60.648C975.592 61.0213 975.987 61.576 976.222 62.312C976.467 61.5973 976.878 61.048 977.454 60.664C978.03 60.2693 978.68 60.072 979.406 60.072ZM988.674 60.104C989.528 60.104 990.248 60.3173 990.834 60.744C991.432 61.1707 991.848 61.7413 992.082 62.456V60.216H993.538V69H992.082V66.76C991.848 67.4747 991.432 68.0453 990.834 68.472C990.248 68.8987 989.528 69.112 988.674 69.112C987.896 69.112 987.202 68.9307 986.594 68.568C985.986 68.2053 985.506 67.688 985.154 67.016C984.813 66.3333 984.642 65.5333 984.642 64.616C984.642 63.6987 984.813 62.8987 985.154 62.216C985.506 61.5333 985.986 61.0107 986.594 60.648C987.202 60.2853 987.896 60.104 988.674 60.104ZM989.09 61.4C988.194 61.4 987.474 61.688 986.93 62.264C986.397 62.8293 986.13 63.6133 986.13 64.616C986.13 65.6187 986.397 66.408 986.93 66.984C987.474 67.5493 988.194 67.832 989.09 67.832C989.666 67.832 990.178 67.6987 990.626 67.432C991.085 67.1653 991.442 66.792 991.698 66.312C991.954 65.8213 992.082 65.256 992.082 64.616C992.082 63.976 991.954 63.4107 991.698 62.92C991.442 62.4293 991.085 62.056 990.626 61.8C990.178 61.5333 989.666 61.4 989.09 61.4ZM999.744 60.104C1000.86 60.104 1001.79 60.4027 1002.53 61C1003.26 61.5973 1003.72 62.3973 1003.89 63.4H1002.35C1002.24 62.7707 1001.95 62.28 1001.47 61.928C1001 61.5653 1000.42 61.384 999.712 61.384C999.2 61.384 998.73 61.5013 998.304 61.736C997.888 61.9707 997.552 62.3333 997.296 62.824C997.04 63.304 996.912 63.9013 996.912 64.616C996.912 65.3307 997.04 65.9333 997.296 66.424C997.552 66.904 997.888 67.2613 998.304 67.496C998.73 67.7307 999.2 67.848 999.712 67.848C1000.42 67.848 1001 67.6667 1001.47 67.304C1001.95 66.9413 1002.24 66.4453 1002.35 65.816H1003.89C1003.72 66.8293 1003.26 67.6347 1002.53 68.232C1001.79 68.8187 1000.86 69.112 999.744 69.112C998.901 69.112 998.154 68.9307 997.504 68.568C996.853 68.2053 996.341 67.688 995.968 67.016C995.605 66.3333 995.424 65.5333 995.424 64.616C995.424 63.6987 995.605 62.8987 995.968 62.216C996.341 61.5333 996.853 61.0107 997.504 60.648C998.154 60.2853 998.901 60.104 999.744 60.104ZM1005.54 57.64C1005.54 57.3733 1005.63 57.16 1005.81 57C1005.99 56.8293 1006.23 56.744 1006.53 56.744C1006.83 56.744 1007.07 56.8293 1007.25 57C1007.43 57.16 1007.52 57.3733 1007.52 57.64C1007.52 57.9067 1007.43 58.1253 1007.25 58.296C1007.07 58.456 1006.83 58.536 1006.53 58.536C1006.23 58.536 1005.99 58.456 1005.81 58.296C1005.63 58.1253 1005.54 57.9067 1005.54 57.64ZM1007.25 60.216V69H1005.79V60.216H1007.25ZM1012.34 60.104C1013.33 60.104 1014.13 60.3653 1014.73 60.888C1015.33 61.4 1015.7 62.0933 1015.83 62.968H1014.44C1014.37 62.4453 1014.16 62.0187 1013.78 61.688C1013.42 61.3467 1012.93 61.176 1012.31 61.176C1011.79 61.176 1011.38 61.304 1011.08 61.56C1010.79 61.8053 1010.65 62.1413 1010.65 62.568C1010.65 62.888 1010.74 63.1493 1010.93 63.352C1011.14 63.544 1011.38 63.6933 1011.67 63.8C1011.97 63.896 1012.37 64.0027 1012.89 64.12C1013.54 64.2693 1014.06 64.424 1014.45 64.584C1014.86 64.7333 1015.2 64.9787 1015.48 65.32C1015.77 65.6613 1015.91 66.12 1015.91 66.696C1015.91 67.4107 1015.64 67.992 1015.09 68.44C1014.56 68.888 1013.85 69.112 1012.95 69.112C1011.9 69.112 1011.05 68.8613 1010.39 68.36C1009.73 67.8587 1009.34 67.16 1009.22 66.264H1010.63C1010.68 66.7973 1010.91 67.2293 1011.32 67.56C1011.73 67.8907 1012.28 68.056 1012.95 68.056C1013.45 68.056 1013.84 67.928 1014.12 67.672C1014.41 67.416 1014.55 67.08 1014.55 66.664C1014.55 66.3227 1014.45 66.0507 1014.25 65.848C1014.04 65.6453 1013.79 65.4907 1013.49 65.384C1013.2 65.2773 1012.78 65.1653 1012.26 65.048C1011.61 64.8987 1011.09 64.7493 1010.69 64.6C1010.31 64.4507 1009.98 64.216 1009.7 63.896C1009.44 63.5653 1009.3 63.1227 1009.3 62.568C1009.3 61.832 1009.57 61.24 1010.12 60.792C1010.66 60.3333 1011.4 60.104 1012.34 60.104ZM1022.05 67.72V69H1020.96C1020.06 69 1019.39 68.7867 1018.94 68.36C1018.51 67.9333 1018.29 67.2187 1018.29 66.216V61.48H1016.98V60.216H1018.29V58.024H1019.76V60.216H1022.03V61.48H1019.76V66.248C1019.76 66.8133 1019.86 67.2027 1020.06 67.416C1020.28 67.6187 1020.64 67.72 1021.15 67.72H1022.05Z" fill="black"/>
<path d="M1313.67 71.7495L1309 67.0766C1308.79 66.8656 1308.5 66.7485 1308.2 66.7485C1307.89 66.7485 1307.71 66.3875 1307.89 66.1288C1308.91 64.587 1309.5 62.7386 1309.5 60.749C1309.5 55.3636 1305.14 51 1299.75 51C1294.36 51 1290 55.3636 1290 60.749C1290 66.1345 1294.36 70.4981 1299.75 70.4981C1301.74 70.4981 1303.59 69.9044 1305.13 68.8823C1305.39 68.7109 1305.75 68.8894 1305.75 69.1998C1305.75 69.4998 1305.87 69.7857 1306.08 69.9966L1310.75 74.6696C1311.19 75.1101 1311.91 75.1101 1312.34 74.6696L1313.67 73.3431C1314.11 72.9025 1314.11 72.1901 1313.67 71.7495ZM1299.75 66.7485C1296.44 66.7485 1293.75 64.0675 1293.75 60.749C1293.75 57.4353 1296.43 54.7496 1299.75 54.7496C1303.07 54.7496 1305.75 57.4306 1305.75 60.749C1305.75 64.0628 1303.07 66.7485 1299.75 66.7485Z" fill="#408000"/>
<path d="M525.682 57.292V70H523.126V64.474H517.69V70H515.152V57.292H517.69V62.44H523.126V57.292H525.682ZM532.592 59.902C533.564 59.902 534.434 60.106 535.202 60.514C535.982 60.922 536.594 61.516 537.038 62.296C537.482 63.064 537.704 63.97 537.704 65.014C537.704 66.058 537.482 66.964 537.038 67.732C536.594 68.5 535.982 69.094 535.202 69.514C534.434 69.922 533.564 70.126 532.592 70.126C531.62 70.126 530.744 69.922 529.964 69.514C529.196 69.094 528.59 68.5 528.146 67.732C527.702 66.964 527.48 66.058 527.48 65.014C527.48 63.97 527.702 63.064 528.146 62.296C528.59 61.516 529.196 60.922 529.964 60.514C530.744 60.106 531.62 59.902 532.592 59.902ZM532.592 62.098C531.884 62.098 531.284 62.35 530.792 62.854C530.3 63.346 530.054 64.066 530.054 65.014C530.054 65.962 530.3 66.688 530.792 67.192C531.284 67.684 531.884 67.93 532.592 67.93C533.3 67.93 533.9 67.684 534.392 67.192C534.884 66.688 535.13 65.962 535.13 65.014C535.13 64.066 534.884 63.346 534.392 62.854C533.9 62.35 533.3 62.098 532.592 62.098ZM552.188 59.884C553.4 59.884 554.354 60.262 555.05 61.018C555.758 61.762 556.112 62.824 556.112 64.204V70H553.592V64.492C553.592 63.724 553.394 63.136 552.998 62.728C552.614 62.308 552.08 62.098 551.396 62.098C550.688 62.098 550.124 62.32 549.704 62.764C549.284 63.208 549.074 63.856 549.074 64.708V70H546.554V64.492C546.554 63.724 546.356 63.136 545.96 62.728C545.576 62.308 545.042 62.098 544.358 62.098C543.65 62.098 543.086 62.32 542.666 62.764C542.246 63.208 542.036 63.856 542.036 64.708V70H539.498V60.028H542.036V61.918C542.3 61.27 542.714 60.772 543.278 60.424C543.854 60.064 544.52 59.884 545.276 59.884C546.08 59.884 546.776 60.076 547.364 60.46C547.964 60.844 548.414 61.396 548.714 62.116C549.026 61.432 549.488 60.892 550.1 60.496C550.724 60.088 551.42 59.884 552.188 59.884ZM567.719 64.636C567.719 64.888 567.689 65.176 567.629 65.5H560.321C560.357 66.388 560.597 67.042 561.041 67.462C561.485 67.882 562.037 68.092 562.697 68.092C563.285 68.092 563.771 67.948 564.155 67.66C564.551 67.372 564.803 66.982 564.911 66.49H567.593C567.461 67.186 567.179 67.81 566.747 68.362C566.315 68.914 565.757 69.346 565.073 69.658C564.401 69.97 563.651 70.126 562.823 70.126C561.851 70.126 560.987 69.922 560.231 69.514C559.475 69.094 558.887 68.5 558.467 67.732C558.047 66.964 557.837 66.058 557.837 65.014C557.837 63.97 558.047 63.064 558.467 62.296C558.887 61.516 559.475 60.922 560.231 60.514C560.987 60.106 561.851 59.902 562.823 59.902C563.807 59.902 564.665 60.106 565.397 60.514C566.141 60.922 566.711 61.486 567.107 62.206C567.515 62.914 567.719 63.724 567.719 64.636ZM565.163 64.384C565.199 63.568 564.983 62.95 564.515 62.53C564.059 62.11 563.495 61.9 562.823 61.9C562.139 61.9 561.563 62.11 561.095 62.53C560.627 62.95 560.369 63.568 560.321 64.384H565.163Z" fill="#4D4DFF"/>
<path d="M609.342 66.706C609.342 67.306 609.198 67.864 608.91 68.38C608.622 68.896 608.184 69.316 607.596 69.64C607.008 69.964 606.282 70.126 605.418 70.126C604.578 70.126 603.828 69.976 603.168 69.676C602.52 69.364 601.998 68.944 601.602 68.416C601.218 67.876 600.996 67.264 600.936 66.58H602.682C602.718 66.94 602.838 67.294 603.042 67.642C603.258 67.978 603.558 68.26 603.942 68.488C604.338 68.704 604.812 68.812 605.364 68.812C606.084 68.812 606.636 68.62 607.02 68.236C607.404 67.852 607.596 67.36 607.596 66.76C607.596 66.244 607.458 65.824 607.182 65.5C606.918 65.176 606.588 64.924 606.192 64.744C605.796 64.552 605.256 64.348 604.572 64.132C603.768 63.868 603.12 63.622 602.628 63.394C602.148 63.154 601.734 62.8 601.386 62.332C601.05 61.864 600.882 61.246 600.882 60.478C600.882 59.818 601.038 59.236 601.35 58.732C601.674 58.228 602.13 57.838 602.718 57.562C603.318 57.286 604.02 57.148 604.824 57.148C606.072 57.148 607.062 57.454 607.794 58.066C608.526 58.666 608.952 59.434 609.072 60.37H607.308C607.212 59.866 606.954 59.422 606.534 59.038C606.114 58.654 605.544 58.462 604.824 58.462C604.164 58.462 603.636 58.636 603.24 58.984C602.844 59.32 602.646 59.8 602.646 60.424C602.646 60.916 602.772 61.318 603.024 61.63C603.288 61.93 603.612 62.17 603.996 62.35C604.38 62.518 604.908 62.71 605.58 62.926C606.396 63.19 607.05 63.442 607.542 63.682C608.046 63.922 608.472 64.288 608.82 64.78C609.168 65.26 609.342 65.902 609.342 66.706ZM620.634 64.51C620.634 64.858 620.61 65.158 620.562 65.41H612.66C612.696 66.538 613.014 67.384 613.614 67.948C614.226 68.512 614.97 68.794 615.846 68.794C616.638 68.794 617.298 68.596 617.826 68.2C618.366 67.792 618.696 67.252 618.816 66.58H620.562C620.442 67.264 620.172 67.876 619.752 68.416C619.344 68.956 618.81 69.376 618.15 69.676C617.49 69.976 616.746 70.126 615.918 70.126C614.97 70.126 614.13 69.922 613.398 69.514C612.666 69.106 612.09 68.524 611.67 67.768C611.262 67 611.058 66.1 611.058 65.068C611.058 64.036 611.262 63.136 611.67 62.368C612.09 61.6 612.666 61.012 613.398 60.604C614.13 60.196 614.97 59.992 615.918 59.992C616.878 59.992 617.712 60.196 618.42 60.604C619.14 61.012 619.686 61.558 620.058 62.242C620.442 62.926 620.634 63.682 620.634 64.51ZM618.978 64.618C619.014 63.886 618.894 63.274 618.618 62.782C618.342 62.29 617.964 61.924 617.484 61.684C617.004 61.444 616.482 61.324 615.918 61.324C615.018 61.324 614.262 61.606 613.65 62.17C613.038 62.722 612.708 63.538 612.66 64.618H618.978ZM624.415 62.116C624.739 61.432 625.213 60.904 625.837 60.532C626.461 60.148 627.205 59.956 628.069 59.956V61.738H627.565C626.641 61.738 625.885 61.978 625.297 62.458C624.709 62.926 624.415 63.706 624.415 64.798V70H622.777V60.118H624.415V62.116ZM633.519 68.254L636.579 60.118H638.343L634.473 70H632.529L628.659 60.118H630.423L633.519 68.254ZM639.663 57.22C639.663 56.92 639.765 56.68 639.969 56.5C640.173 56.308 640.443 56.212 640.779 56.212C641.115 56.212 641.385 56.308 641.589 56.5C641.793 56.68 641.895 56.92 641.895 57.22C641.895 57.52 641.793 57.766 641.589 57.958C641.385 58.138 641.115 58.228 640.779 58.228C640.443 58.228 640.173 58.138 639.969 57.958C639.765 57.766 639.663 57.52 639.663 57.22ZM641.589 60.118V70H639.951V60.118H641.589ZM648.596 59.992C649.856 59.992 650.9 60.328 651.728 61C652.556 61.672 653.066 62.572 653.258 63.7H651.53C651.41 62.992 651.08 62.44 650.54 62.044C650.012 61.636 649.352 61.432 648.56 61.432C647.984 61.432 647.456 61.564 646.976 61.828C646.508 62.092 646.13 62.5 645.842 63.052C645.554 63.592 645.41 64.264 645.41 65.068C645.41 65.872 645.554 66.55 645.842 67.102C646.13 67.642 646.508 68.044 646.976 68.308C647.456 68.572 647.984 68.704 648.56 68.704C649.352 68.704 650.012 68.5 650.54 68.092C651.08 67.684 651.41 67.126 651.53 66.418H653.258C653.066 67.558 652.556 68.464 651.728 69.136C650.9 69.796 649.856 70.126 648.596 70.126C647.648 70.126 646.808 69.922 646.076 69.514C645.344 69.106 644.768 68.524 644.348 67.768C643.94 67 643.736 66.1 643.736 65.068C643.736 64.036 643.94 63.136 644.348 62.368C644.768 61.6 645.344 61.012 646.076 60.604C646.808 60.196 647.648 59.992 648.596 59.992ZM664.492 64.51C664.492 64.858 664.468 65.158 664.42 65.41H656.518C656.554 66.538 656.872 67.384 657.472 67.948C658.084 68.512 658.828 68.794 659.704 68.794C660.496 68.794 661.156 68.596 661.684 68.2C662.224 67.792 662.554 67.252 662.674 66.58H664.42C664.3 67.264 664.03 67.876 663.61 68.416C663.202 68.956 662.668 69.376 662.008 69.676C661.348 69.976 660.604 70.126 659.776 70.126C658.828 70.126 657.988 69.922 657.256 69.514C656.524 69.106 655.948 68.524 655.528 67.768C655.12 67 654.916 66.1 654.916 65.068C654.916 64.036 655.12 63.136 655.528 62.368C655.948 61.6 656.524 61.012 657.256 60.604C657.988 60.196 658.828 59.992 659.776 59.992C660.736 59.992 661.57 60.196 662.278 60.604C662.998 61.012 663.544 61.558 663.916 62.242C664.3 62.926 664.492 63.682 664.492 64.51ZM662.836 64.618C662.872 63.886 662.752 63.274 662.476 62.782C662.2 62.29 661.822 61.924 661.342 61.684C660.862 61.444 660.34 61.324 659.776 61.324C658.876 61.324 658.12 61.606 657.508 62.17C656.896 62.722 656.566 63.538 656.518 64.618H662.836Z" fill="black"/>
<path d="M208.096 80.9474V85.2143H205.813V73.7166H209.975C211.325 73.7166 212.339 74.0423 213.02 74.6937C213.71 75.3452 214.056 76.23 214.056 77.3483C214.056 78.4449 213.7 79.3189 212.987 79.9703C212.285 80.6217 211.281 80.9474 209.975 80.9474H208.096ZM209.732 79.1072C211.071 79.1072 211.74 78.5209 211.74 77.3483C211.74 76.7729 211.584 76.3332 211.271 76.0292C210.957 75.7252 210.445 75.5732 209.732 75.5732H208.096V79.1072H209.732ZM220.883 76.0617C221.92 76.0617 222.745 76.4037 223.361 77.0877C223.976 77.7717 224.284 78.7326 224.284 79.9703V85.2143H222.017V80.2309C222.017 79.5143 221.833 78.9606 221.466 78.5697C221.099 78.168 220.597 77.9672 219.96 77.9672C219.312 77.9672 218.794 78.1789 218.405 78.6023C218.017 79.0257 217.822 79.6337 217.822 80.4263V85.2143H215.539V73.1629H217.822V77.9997C218.06 77.3917 218.449 76.9194 218.988 76.5829C219.539 76.2354 220.171 76.0617 220.883 76.0617ZM229.807 76.078C230.563 76.078 231.211 76.2572 231.751 76.6154C232.29 76.9737 232.674 77.4569 232.9 78.0649V76.192H235.167V85.2143H232.9V83.3252C232.674 83.9332 232.29 84.4217 231.751 84.7909C231.211 85.1492 230.563 85.3283 229.807 85.3283C229.051 85.3283 228.371 85.1437 227.767 84.7746C227.162 84.4054 226.687 83.8734 226.342 83.1786C226.007 82.4729 225.84 81.6477 225.84 80.7032C225.84 79.7586 226.007 78.9389 226.342 78.244C226.687 77.5383 227.162 77.0009 227.767 76.6317C228.371 76.2626 229.051 76.078 229.807 76.078ZM230.52 78.0812C229.807 78.0812 229.235 78.3146 228.803 78.7814C228.371 79.2483 228.155 79.8889 228.155 80.7032C228.155 81.5174 228.371 82.158 228.803 82.6249C229.235 83.0809 229.807 83.3089 230.52 83.3089C231.211 83.3089 231.778 83.0754 232.22 82.6086C232.674 82.1309 232.9 81.4957 232.9 80.7032C232.9 79.8997 232.674 79.2646 232.22 78.7977C231.778 78.32 231.211 78.0812 230.52 78.0812ZM239.52 77.9183C239.855 77.3429 240.298 76.8923 240.848 76.5666C241.399 76.23 242.014 76.0617 242.694 76.0617V78.5209H242.03C240.357 78.5209 239.52 79.3026 239.52 80.866V85.2143H237.237V76.192H239.52V77.9183ZM256.282 73.8469V85.2143H254.015V77.2832L251.116 85.2143H249.14L246.241 77.3157V85.2143H243.958V73.8469H246.727L250.16 82.3969L253.529 73.8469H256.282ZM266.786 80.3612C266.786 80.5892 266.759 80.8497 266.706 81.1429H260.131C260.163 81.9463 260.379 82.538 260.778 82.918C261.178 83.298 261.675 83.488 262.268 83.488C262.797 83.488 263.235 83.3577 263.58 83.0972C263.936 82.8366 264.163 82.4837 264.26 82.0386H266.673C266.554 82.6683 266.301 83.2329 265.912 83.7323C265.523 84.2317 265.021 84.6226 264.406 84.9049C263.801 85.1872 263.127 85.3283 262.382 85.3283C261.507 85.3283 260.73 85.1437 260.05 84.7746C259.37 84.3946 258.841 83.8572 258.463 83.1623C258.085 82.4674 257.896 81.6477 257.896 80.7032C257.896 79.7586 258.085 78.9389 258.463 78.244C258.841 77.5383 259.37 77.0009 260.05 76.6317C260.73 76.2626 261.507 76.078 262.382 76.078C263.267 76.078 264.039 76.2626 264.697 76.6317C265.367 77.0009 265.88 77.5112 266.236 78.1626C266.603 78.8032 266.786 79.536 266.786 80.3612ZM264.487 80.1332C264.519 79.3949 264.325 78.8357 263.904 78.4557C263.494 78.0757 262.986 77.8857 262.382 77.8857C261.766 77.8857 261.248 78.0757 260.827 78.4557C260.406 78.8357 260.174 79.3949 260.131 80.1332H264.487ZM271.922 76.078C272.677 76.078 273.32 76.2572 273.849 76.6154C274.388 76.9737 274.777 77.4569 275.015 78.0649V73.1629H277.282V85.2143H275.015V83.3252C274.777 83.9332 274.388 84.4217 273.849 84.7909C273.32 85.1492 272.677 85.3283 271.922 85.3283C271.166 85.3283 270.486 85.1437 269.881 84.7746C269.276 84.4054 268.801 83.8734 268.456 83.1786C268.121 82.4729 267.954 81.6477 267.954 80.7032C267.954 79.7586 268.121 78.9389 268.456 78.244C268.801 77.5383 269.276 77.0009 269.881 76.6317C270.486 76.2626 271.166 76.078 271.922 76.078ZM272.634 78.0812C271.922 78.0812 271.349 78.3146 270.917 78.7814C270.486 79.2483 270.27 79.8889 270.27 80.7032C270.27 81.5174 270.486 82.158 270.917 82.6249C271.349 83.0809 271.922 83.3089 272.634 83.3089C273.325 83.3089 273.892 83.0754 274.334 82.6086C274.788 82.1309 275.015 81.4957 275.015 80.7032C275.015 79.8997 274.788 79.2646 274.334 78.7977C273.892 78.32 273.325 78.0812 272.634 78.0812Z" fill="#000080"/>
<path d="M196.505 85.1384C197.492 85.1384 198.302 84.5557 198.37 83.8196L202.871 49.5555L205.812 66.0433C205.871 66.419 206.108 66.7641 206.493 66.9944C206.808 67.2012 207.223 67.324 207.648 67.324C207.657 67.324 207.657 67.324 207.657 67.324C208.171 67.324 208.664 67.1556 209.009 66.8641L213.688 63.1214H222.067C222.847 63.1214 223.537 62.7536 223.804 62.1934L227.16 55.4526L230.663 62.3391C230.703 62.4234 230.762 62.5081 230.831 62.5846C231.186 63.0062 231.769 63.2517 232.4 63.2517H275.489C276.516 63.2517 277.344 62.6073 277.344 61.8097C277.344 61.02 276.514 60.3681 275.489 60.3681H233.653L228.896 51.0197C228.738 50.6674 228.413 50.3758 227.969 50.2071C227.495 50.0305 226.942 50.015 226.458 50.1608C225.975 50.3143 225.6 50.6134 225.412 51.0045L220.803 60.2452H212.898C212.404 60.2452 211.931 60.3984 211.575 60.6667L208.97 62.7601L204.43 37.3081C204.42 37.2849 204.42 37.2541 204.41 37.2314C204.233 36.5489 203.463 36.058 202.574 36.058C202.456 36.058 202.348 36.0735 202.229 36.0887C201.39 36.2192 200.798 36.7405 200.739 37.3846L195.863 74.4781L190.474 55.0149C190.386 54.647 190.08 54.3096 189.656 54.0946C189.231 53.8876 188.708 53.8184 188.224 53.9185C187.505 54.0563 186.971 54.5013 186.843 55.0453L182.777 68.9104L175.828 60.2833C175.818 60.2676 175.808 60.2529 175.789 60.2449C175.443 59.8463 174.871 59.6083 174.25 59.6083H147.721C146.694 59.6083 145.866 60.2529 145.866 61.0424C145.866 61.84 146.694 62.4839 147.721 62.4839H173.223L181.987 73.343C182.125 73.5349 182.372 73.7648 182.777 73.9257C182.915 73.9795 183.063 74.0177 183.221 74.0409C184.217 74.1942 185.184 73.6956 185.402 72.9365L188.609 61.9778L194.718 84.0021C194.718 84.0098 194.728 84.025 194.728 84.0404C194.935 84.6846 195.666 85.1371 196.505 85.1371V85.1384Z" fill="#408000"/>
<path fill-rule="evenodd" clip-rule="evenodd" d="M146.026 55.9596C148.843 55.9596 151.117 58.2595 151.117 61.0788C151.117 63.8982 148.843 66.1985 146.026 66.1985C143.223 66.1985 140.949 63.8982 140.949 61.0788C140.949 58.2595 143.223 55.9596 146.026 55.9596Z" fill="#408000"/>
</svg>
