<svg width="133" height="50" viewBox="0 0 133 50" fill="none" xmlns="http://www.w3.org/2000/svg">
<path d="M51.505 49.1384C52.492 49.1384 53.302 48.5557 53.37 47.8196L57.871 13.5555L60.812 30.0433C60.871 30.419 61.108 30.7641 61.493 30.9944C61.808 31.2012 62.223 31.324 62.648 31.324C62.657 31.324 62.657 31.324 62.657 31.324C63.171 31.324 63.664 31.1556 64.009 30.8641L68.688 27.1214H77.067C77.847 27.1214 78.537 26.7536 78.804 26.1934L82.16 19.4526L85.663 26.3391C85.703 26.4234 85.762 26.5081 85.831 26.5846C86.186 27.0062 86.769 27.2517 87.4 27.2517H130.489C131.516 27.2517 132.344 26.6073 132.344 25.8097C132.344 25.02 131.514 24.3681 130.489 24.3681H88.653L83.896 15.0197C83.738 14.6674 83.413 14.3758 82.969 14.2071C82.495 14.0305 81.942 14.015 81.458 14.1608C80.975 14.3143 80.6 14.6134 80.412 15.0045L75.803 24.2452H67.898C67.404 24.2452 66.931 24.3984 66.575 24.6667L63.97 26.7601L59.43 1.30809C59.42 1.28489 59.42 1.25408 59.41 1.23138C59.233 0.548884 58.463 0.0579834 57.574 0.0579834C57.456 0.0579834 57.348 0.0734841 57.229 0.0886841C56.39 0.219184 55.798 0.740486 55.739 1.38459L50.863 38.4781L45.474 19.0149C45.386 18.647 45.08 18.3096 44.656 18.0946C44.231 17.8876 43.708 17.8184 43.224 17.9185C42.505 18.0563 41.971 18.5013 41.843 19.0453L37.777 32.9104L30.828 24.2833C30.818 24.2676 30.808 24.2529 30.789 24.2449C30.443 23.8463 29.871 23.6083 29.25 23.6083H2.72096C1.69396 23.6083 0.865967 24.2529 0.865967 25.0424C0.865967 25.84 1.69396 26.4839 2.72096 26.4839H28.223L36.987 37.343C37.125 37.5349 37.372 37.7648 37.777 37.9257C37.915 37.9795 38.063 38.0177 38.221 38.0409C39.217 38.1942 40.184 37.6956 40.402 36.9365L43.609 25.9778L49.718 48.0021C49.718 48.0098 49.728 48.025 49.728 48.0404C49.935 48.6846 50.666 49.1371 51.505 49.1371V49.1384Z" fill="#408000"/>
</svg>
