<svg width="138" height="50" viewBox="0 0 138 50" fill="none" xmlns="http://www.w3.org/2000/svg">
<path d="M68.096 39.9474V44.2143H65.813V32.7166H69.975C71.325 32.7166 72.339 33.0423 73.02 33.6937C73.71 34.3452 74.056 35.23 74.056 36.3483C74.056 37.4449 73.7 38.3189 72.987 38.9703C72.285 39.6217 71.281 39.9474 69.975 39.9474H68.096ZM69.732 38.1072C71.071 38.1072 71.74 37.5209 71.74 36.3483C71.74 35.7729 71.584 35.3332 71.271 35.0292C70.957 34.7252 70.445 34.5732 69.732 34.5732H68.096V38.1072H69.732ZM80.883 35.0617C81.92 35.0617 82.745 35.4037 83.361 36.0877C83.976 36.7717 84.284 37.7326 84.284 38.9703V44.2143H82.017V39.2309C82.017 38.5143 81.833 37.9606 81.466 37.5697C81.099 37.168 80.597 36.9672 79.96 36.9672C79.312 36.9672 78.794 37.1789 78.405 37.6023C78.017 38.0257 77.822 38.6337 77.822 39.4263V44.2143H75.539V32.1629H77.822V36.9997C78.06 36.3917 78.449 35.9194 78.988 35.5829C79.539 35.2354 80.171 35.0617 80.883 35.0617ZM89.807 35.078C90.563 35.078 91.211 35.2572 91.751 35.6154C92.29 35.9737 92.674 36.4569 92.9 37.0649V35.192H95.167V44.2143H92.9V42.3252C92.674 42.9332 92.29 43.4217 91.751 43.7909C91.211 44.1492 90.563 44.3283 89.807 44.3283C89.051 44.3283 88.371 44.1437 87.767 43.7746C87.162 43.4054 86.687 42.8734 86.342 42.1786C86.007 41.4729 85.84 40.6477 85.84 39.7032C85.84 38.7586 86.007 37.9389 86.342 37.244C86.687 36.5383 87.162 36.0009 87.767 35.6317C88.371 35.2626 89.051 35.078 89.807 35.078ZM90.52 37.0812C89.807 37.0812 89.235 37.3146 88.803 37.7814C88.371 38.2483 88.155 38.8889 88.155 39.7032C88.155 40.5174 88.371 41.158 88.803 41.6249C89.235 42.0809 89.807 42.3089 90.52 42.3089C91.211 42.3089 91.778 42.0754 92.22 41.6086C92.674 41.1309 92.9 40.4957 92.9 39.7032C92.9 38.8997 92.674 38.2646 92.22 37.7977C91.778 37.32 91.211 37.0812 90.52 37.0812ZM99.52 36.9183C99.855 36.3429 100.298 35.8923 100.848 35.5666C101.399 35.23 102.014 35.0617 102.694 35.0617V37.5209H102.03C100.357 37.5209 99.52 38.3026 99.52 39.866V44.2143H97.237V35.192H99.52V36.9183ZM116.282 32.8469V44.2143H114.015V36.2832L111.116 44.2143H109.14L106.241 36.3157V44.2143H103.958V32.8469H106.727L110.16 41.3969L113.529 32.8469H116.282ZM126.786 39.3612C126.786 39.5892 126.759 39.8497 126.706 40.1429H120.131C120.163 40.9463 120.379 41.538 120.778 41.918C121.178 42.298 121.675 42.488 122.268 42.488C122.797 42.488 123.235 42.3577 123.58 42.0972C123.936 41.8366 124.163 41.4837 124.26 41.0386H126.673C126.554 41.6683 126.301 42.2329 125.912 42.7323C125.523 43.2317 125.021 43.6226 124.406 43.9049C123.801 44.1872 123.127 44.3283 122.382 44.3283C121.507 44.3283 120.73 44.1437 120.05 43.7746C119.37 43.3946 118.841 42.8572 118.463 42.1623C118.085 41.4674 117.896 40.6477 117.896 39.7032C117.896 38.7586 118.085 37.9389 118.463 37.244C118.841 36.5383 119.37 36.0009 120.05 35.6317C120.73 35.2626 121.507 35.078 122.382 35.078C123.267 35.078 124.039 35.2626 124.697 35.6317C125.367 36.0009 125.88 36.5112 126.236 37.1626C126.603 37.8032 126.786 38.536 126.786 39.3612ZM124.487 39.1332C124.519 38.3949 124.325 37.8357 123.904 37.4557C123.494 37.0757 122.986 36.8857 122.382 36.8857C121.766 36.8857 121.248 37.0757 120.827 37.4557C120.406 37.8357 120.174 38.3949 120.131 39.1332H124.487ZM131.922 35.078C132.677 35.078 133.32 35.2572 133.849 35.6154C134.388 35.9737 134.777 36.4569 135.015 37.0649V32.1629H137.282V44.2143H135.015V42.3252C134.777 42.9332 134.388 43.4217 133.849 43.7909C133.32 44.1492 132.677 44.3283 131.922 44.3283C131.166 44.3283 130.486 44.1437 129.881 43.7746C129.276 43.4054 128.801 42.8734 128.456 42.1786C128.121 41.4729 127.954 40.6477 127.954 39.7032C127.954 38.7586 128.121 37.9389 128.456 37.244C128.801 36.5383 129.276 36.0009 129.881 35.6317C130.486 35.2626 131.166 35.078 131.922 35.078ZM132.634 37.0812C131.922 37.0812 131.349 37.3146 130.917 37.7814C130.486 38.2483 130.27 38.8889 130.27 39.7032C130.27 40.5174 130.486 41.158 130.917 41.6249C131.349 42.0809 131.922 42.3089 132.634 42.3089C133.325 42.3089 133.892 42.0754 134.334 41.6086C134.788 41.1309 135.015 40.4957 135.015 39.7032C135.015 38.8997 134.788 38.2646 134.334 37.7977C133.892 37.32 133.325 37.0812 132.634 37.0812Z" fill="#000080"/>
<path d="M51.639 49.0804C52.626 49.0804 53.436 48.4977 53.504 47.7616L58.005 13.4975L60.946 29.9853C61.005 30.361 61.242 30.7061 61.627 30.9364C61.942 31.1432 62.357 31.266 62.782 31.266C62.791 31.266 62.791 31.266 62.791 31.266C63.305 31.266 63.798 31.0976 64.143 30.8061L68.822 27.0634H77.201C77.981 27.0634 78.671 26.6956 78.938 26.1354L82.294 19.3946L85.797 26.2811C85.837 26.3654 85.896 26.4501 85.965 26.5266C86.32 26.9482 86.903 27.1937 87.534 27.1937H130.623C131.65 27.1937 132.478 26.5493 132.478 25.7517C132.478 24.962 131.648 24.3101 130.623 24.3101H88.787L84.03 14.9617C83.872 14.6094 83.547 14.3178 83.103 14.1491C82.629 13.9725 82.076 13.957 81.592 14.1028C81.109 14.2563 80.734 14.5554 80.546 14.9465L75.937 24.1872H68.032C67.538 24.1872 67.065 24.3404 66.709 24.6087L64.104 26.7021L59.564 1.2501C59.554 1.2269 59.554 1.1961 59.544 1.1734C59.367 0.490901 58.597 0 57.708 0C57.59 0 57.482 0.0155007 57.363 0.0307007C56.524 0.161201 55.932 0.682503 55.873 1.3266L50.997 38.4201L45.608 18.9569C45.52 18.589 45.214 18.2516 44.79 18.0366C44.365 17.8296 43.842 17.7604 43.358 17.8605C42.639 17.9983 42.105 18.4433 41.977 18.9873L37.911 32.8524L30.962 24.2253C30.952 24.2096 30.942 24.1949 30.923 24.1869C30.577 23.7883 30.005 23.5503 29.384 23.5503H2.855C1.828 23.5503 1 24.1949 1 24.9844C1 25.782 1.828 26.4259 2.855 26.4259H28.357L37.121 37.285C37.259 37.4769 37.506 37.7068 37.911 37.8677C38.049 37.9215 38.197 37.9597 38.355 37.9829C39.351 38.1362 40.318 37.6376 40.536 36.8785L43.743 25.9198L49.852 47.9441C49.852 47.9518 49.862 47.967 49.862 47.9824C50.069 48.6266 50.8 49.0791 51.639 49.0791V49.0804Z" fill="#408000"/>
<path fill-rule="evenodd" clip-rule="evenodd" d="M6.02597 14.9596C8.84297 14.9596 11.117 17.2595 11.117 20.0788C11.117 22.8982 8.84297 25.1985 6.02597 25.1985C3.22297 25.1985 0.948975 22.8982 0.948975 20.0788C0.948975 17.2595 3.22297 14.9596 6.02597 14.9596Z" fill="#408000"/>
</svg>
