<svg width="623" height="79" viewBox="0 0 623 79" fill="none" xmlns="http://www.w3.org/2000/svg">
<path d="M50.1 20.1L40.35 55H32.1L25.55 30.15L18.7 55L10.5 55.05L1.1 20.1H8.6L14.75 47.2L21.85 20.1H29.65L36.35 47.05L42.55 20.1H50.1ZM80.4207 40.55C80.4207 41.55 80.354 42.45 80.2207 43.25H59.9707C60.1374 45.25 60.8374 46.8167 62.0707 47.95C63.304 49.0833 64.8207 49.65 66.6207 49.65C69.2207 49.65 71.0707 48.5333 72.1707 46.3H79.7207C78.9207 48.9667 77.3874 51.1667 75.1207 52.9C72.854 54.6 70.0707 55.45 66.7707 55.45C64.104 55.45 61.704 54.8667 59.5707 53.7C57.4707 52.5 55.8207 50.8167 54.6207 48.65C53.454 46.4833 52.8707 43.9833 52.8707 41.15C52.8707 38.2833 53.454 35.7667 54.6207 33.6C55.7874 31.4333 57.4207 29.7667 59.5207 28.6C61.6207 27.4333 64.0374 26.85 66.7707 26.85C69.404 26.85 71.754 27.4167 73.8207 28.55C75.9207 29.6833 77.5374 31.3 78.6707 33.4C79.8374 35.4667 80.4207 37.85 80.4207 40.55ZM73.1707 38.55C73.1374 36.75 72.4874 35.3167 71.2207 34.25C69.954 33.15 68.404 32.6 66.5707 32.6C64.8374 32.6 63.3707 33.1333 62.1707 34.2C61.004 35.2333 60.2874 36.6833 60.0207 38.55H73.1707ZM92.5301 18V55H85.5301V18H92.5301ZM97.6461 41.15C97.6461 38.2833 98.2294 35.7833 99.3961 33.65C100.563 31.4833 102.179 29.8167 104.246 28.65C106.313 27.45 108.679 26.85 111.346 26.85C114.779 26.85 117.613 27.7167 119.846 29.45C122.113 31.15 123.629 33.55 124.396 36.65H116.846C116.446 35.45 115.763 34.5167 114.796 33.85C113.863 33.15 112.696 32.8 111.296 32.8C109.296 32.8 107.713 33.5333 106.546 35C105.379 36.4333 104.796 38.4833 104.796 41.15C104.796 43.7833 105.379 45.8333 106.546 47.3C107.713 48.7333 109.296 49.45 111.296 49.45C114.129 49.45 115.979 48.1833 116.846 45.65H124.396C123.629 48.65 122.113 51.0333 119.846 52.8C117.579 54.5667 114.746 55.45 111.346 55.45C108.679 55.45 106.313 54.8667 104.246 53.7C102.179 52.5 100.563 50.8333 99.3961 48.7C98.2294 46.5333 97.6461 44.0167 97.6461 41.15ZM141.824 55.45C139.158 55.45 136.758 54.8667 134.624 53.7C132.491 52.5 130.808 50.8167 129.574 48.65C128.374 46.4833 127.774 43.9833 127.774 41.15C127.774 38.3167 128.391 35.8167 129.624 33.65C130.891 31.4833 132.608 29.8167 134.774 28.65C136.941 27.45 139.358 26.85 142.024 26.85C144.691 26.85 147.108 27.45 149.274 28.65C151.441 29.8167 153.141 31.4833 154.374 33.65C155.641 35.8167 156.274 38.3167 156.274 41.15C156.274 43.9833 155.624 46.4833 154.324 48.65C153.058 50.8167 151.324 52.5 149.124 53.7C146.958 54.8667 144.524 55.45 141.824 55.45ZM141.824 49.35C143.091 49.35 144.274 49.05 145.374 48.45C146.508 47.8167 147.408 46.8833 148.074 45.65C148.741 44.4167 149.074 42.9167 149.074 41.15C149.074 38.5167 148.374 36.5 146.974 35.1C145.608 33.6667 143.924 32.95 141.924 32.95C139.924 32.95 138.241 33.6667 136.874 35.1C135.541 36.5 134.874 38.5167 134.874 41.15C134.874 43.7833 135.524 45.8167 136.824 47.25C138.158 48.65 139.824 49.35 141.824 49.35ZM195.809 26.9C199.209 26.9 201.942 27.95 204.009 30.05C206.109 32.1167 207.159 35.0167 207.159 38.75V55H200.159V39.7C200.159 37.5333 199.609 35.8833 198.509 34.75C197.409 33.5833 195.909 33 194.009 33C192.109 33 190.592 33.5833 189.459 34.75C188.359 35.8833 187.809 37.5333 187.809 39.7V55H180.809V39.7C180.809 37.5333 180.259 35.8833 179.159 34.75C178.059 33.5833 176.559 33 174.659 33C172.726 33 171.192 33.5833 170.059 34.75C168.959 35.8833 168.409 37.5333 168.409 39.7V55H161.409V27.3H168.409V30.65C169.309 29.4833 170.459 28.5667 171.859 27.9C173.292 27.2333 174.859 26.9 176.559 26.9C178.726 26.9 180.659 27.3667 182.359 28.3C184.059 29.2 185.376 30.5 186.309 32.2C187.209 30.6 188.509 29.3167 190.209 28.35C191.942 27.3833 193.809 26.9 195.809 26.9ZM239.552 40.55C239.552 41.55 239.485 42.45 239.352 43.25H219.102C219.268 45.25 219.968 46.8167 221.202 47.95C222.435 49.0833 223.952 49.65 225.752 49.65C228.352 49.65 230.202 48.5333 231.302 46.3H238.852C238.052 48.9667 236.518 51.1667 234.252 52.9C231.985 54.6 229.202 55.45 225.902 55.45C223.235 55.45 220.835 54.8667 218.702 53.7C216.602 52.5 214.952 50.8167 213.752 48.65C212.585 46.4833 212.002 43.9833 212.002 41.15C212.002 38.2833 212.585 35.7667 213.752 33.6C214.918 31.4333 216.552 29.7667 218.652 28.6C220.752 27.4333 223.168 26.85 225.902 26.85C228.535 26.85 230.885 27.4167 232.952 28.55C235.052 29.6833 236.668 31.3 237.802 33.4C238.968 35.4667 239.552 37.85 239.552 40.55ZM232.302 38.55C232.268 36.75 231.618 35.3167 230.352 34.25C229.085 33.15 227.535 32.6 225.702 32.6C223.968 32.6 222.502 33.1333 221.302 34.2C220.135 35.2333 219.418 36.6833 219.152 38.55H232.302ZM280.325 20.1V25.75H271.025V55H264.025V25.75H254.725V20.1H280.325ZM297.732 55.45C295.066 55.45 292.666 54.8667 290.532 53.7C288.399 52.5 286.716 50.8167 285.482 48.65C284.282 46.4833 283.682 43.9833 283.682 41.15C283.682 38.3167 284.299 35.8167 285.532 33.65C286.799 31.4833 288.516 29.8167 290.682 28.65C292.849 27.45 295.266 26.85 297.932 26.85C300.599 26.85 303.016 27.45 305.182 28.65C307.349 29.8167 309.049 31.4833 310.282 33.65C311.549 35.8167 312.182 38.3167 312.182 41.15C312.182 43.9833 311.532 46.4833 310.232 48.65C308.966 50.8167 307.232 52.5 305.032 53.7C302.866 54.8667 300.432 55.45 297.732 55.45ZM297.732 49.35C298.999 49.35 300.182 49.05 301.282 48.45C302.416 47.8167 303.316 46.8833 303.982 45.65C304.649 44.4167 304.982 42.9167 304.982 41.15C304.982 38.5167 304.282 36.5 302.882 35.1C301.516 33.6667 299.832 32.95 297.832 32.95C295.832 32.95 294.149 33.6667 292.782 35.1C291.449 36.5 290.782 38.5167 290.782 41.15C290.782 43.7833 291.432 45.8167 292.732 47.25C294.066 48.65 295.732 49.35 297.732 49.35ZM354.681 30.9C354.681 32.7667 354.231 34.5167 353.331 36.15C352.465 37.7833 351.081 39.1 349.181 40.1C347.315 41.1 344.948 41.6 342.081 41.6H336.231V55H329.231V20.1H342.081C344.781 20.1 347.081 20.5667 348.981 21.5C350.881 22.4333 352.298 23.7167 353.231 25.35C354.198 26.9833 354.681 28.8333 354.681 30.9ZM341.781 35.95C343.715 35.95 345.148 35.5167 346.081 34.65C347.015 33.75 347.481 32.5 347.481 30.9C347.481 27.5 345.581 25.8 341.781 25.8H336.231V35.95H341.781ZM375.251 26.9C377.351 26.9 379.218 27.3667 380.851 28.3C382.485 29.2 383.751 30.55 384.651 32.35C385.585 34.1167 386.051 36.25 386.051 38.75V55H379.051V39.7C379.051 37.5 378.501 35.8167 377.401 34.65C376.301 33.45 374.801 32.85 372.901 32.85C370.968 32.85 369.435 33.45 368.301 34.65C367.201 35.8167 366.651 37.5 366.651 39.7V55H359.651V18H366.651V30.75C367.551 29.55 368.751 28.6167 370.251 27.95C371.751 27.25 373.418 26.9 375.251 26.9ZM390.908 41.05C390.908 38.25 391.458 35.7667 392.558 33.6C393.691 31.4333 395.208 29.7667 397.108 28.6C399.041 27.4333 401.191 26.85 403.558 26.85C405.624 26.85 407.424 27.2667 408.958 28.1C410.524 28.9333 411.774 29.9833 412.708 31.25V27.3H419.758V55H412.708V50.95C411.808 52.25 410.558 53.3333 408.958 54.2C407.391 55.0333 405.574 55.45 403.508 55.45C401.174 55.45 399.041 54.85 397.108 53.65C395.208 52.45 393.691 50.7667 392.558 48.6C391.458 46.4 390.908 43.8833 390.908 41.05ZM412.708 41.15C412.708 39.45 412.374 38 411.708 36.8C411.041 35.5667 410.141 34.6333 409.008 34C407.874 33.3333 406.658 33 405.358 33C404.058 33 402.858 33.3167 401.758 33.95C400.658 34.5833 399.758 35.5167 399.058 36.75C398.391 37.95 398.058 39.3833 398.058 41.05C398.058 42.7167 398.391 44.1833 399.058 45.45C399.758 46.6833 400.658 47.6333 401.758 48.3C402.891 48.9667 404.091 49.3 405.358 49.3C406.658 49.3 407.874 48.9833 409.008 48.35C410.141 47.6833 411.041 46.75 411.708 45.55C412.374 44.3167 412.708 42.85 412.708 41.15ZM433.595 31.6C434.495 30.1333 435.661 28.9833 437.095 28.15C438.561 27.3167 440.228 26.9 442.095 26.9V34.25H440.245C438.045 34.25 436.378 34.7667 435.245 35.8C434.145 36.8333 433.595 38.6333 433.595 41.2V55H426.595V27.3H433.595V31.6ZM484.859 20.1V55H477.859V32.3L468.509 55H463.209L453.809 32.3V55H446.809V20.1H454.759L465.859 46.05L476.959 20.1H484.859ZM517.53 40.55C517.53 41.55 517.463 42.45 517.33 43.25H497.08C497.247 45.25 497.947 46.8167 499.18 47.95C500.413 49.0833 501.93 49.65 503.73 49.65C506.33 49.65 508.18 48.5333 509.28 46.3H516.83C516.03 48.9667 514.497 51.1667 512.23 52.9C509.963 54.6 507.18 55.45 503.88 55.45C501.213 55.45 498.813 54.8667 496.68 53.7C494.58 52.5 492.93 50.8167 491.73 48.65C490.563 46.4833 489.98 43.9833 489.98 41.15C489.98 38.2833 490.563 35.7667 491.73 33.6C492.897 31.4333 494.53 29.7667 496.63 28.6C498.73 27.4333 501.147 26.85 503.88 26.85C506.513 26.85 508.863 27.4167 510.93 28.55C513.03 29.6833 514.647 31.3 515.78 33.4C516.947 35.4667 517.53 37.85 517.53 40.55ZM510.28 38.55C510.247 36.75 509.597 35.3167 508.33 34.25C507.063 33.15 505.513 32.6 503.68 32.6C501.947 32.6 500.48 33.1333 499.28 34.2C498.113 35.2333 497.397 36.6833 497.13 38.55H510.28ZM520.839 41.05C520.839 38.25 521.389 35.7667 522.489 33.6C523.623 31.4333 525.156 29.7667 527.089 28.6C529.023 27.4333 531.173 26.85 533.539 26.85C535.339 26.85 537.056 27.25 538.689 28.05C540.323 28.8167 541.623 29.85 542.589 31.15V18H549.689V55H542.589V50.9C541.723 52.2667 540.506 53.3667 538.939 54.2C537.373 55.0333 535.556 55.45 533.489 55.45C531.156 55.45 529.023 54.85 527.089 53.65C525.156 52.45 523.623 50.7667 522.489 48.6C521.389 46.4 520.839 43.8833 520.839 41.05ZM542.639 41.15C542.639 39.45 542.306 38 541.639 36.8C540.973 35.5667 540.073 34.6333 538.939 34C537.806 33.3333 536.589 33 535.289 33C533.989 33 532.789 33.3167 531.689 33.95C530.589 34.5833 529.689 35.5167 528.989 36.75C528.323 37.95 527.989 39.3833 527.989 41.05C527.989 42.7167 528.323 44.1833 528.989 45.45C529.689 46.6833 530.589 47.6333 531.689 48.3C532.823 48.9667 534.023 49.3 535.289 49.3C536.589 49.3 537.806 48.9833 538.939 48.35C540.073 47.6833 540.973 46.75 541.639 45.55C542.306 44.3167 542.639 42.85 542.639 41.15Z" fill="#000080"/>
<rect x="9" y="73" width="173" height="6" fill="#408000"/>
</svg>
